<svg width="77" height="77" viewBox="0 0 77 77" fill="none" xmlns="http://www.w3.org/2000/svg">
<path d="M60.9582 28.875C58.9724 28.8806 57.037 29.5003 55.4172 30.649C53.7975 31.7978 52.5726 33.4195 51.9107 35.2917H9.62488C8.77398 35.2917 7.95793 35.6297 7.35625 36.2314C6.75457 36.8331 6.41655 37.6491 6.41655 38.5C6.41655 39.3509 6.75457 40.167 7.35625 40.7687C7.95793 41.3703 8.77398 41.7084 9.62488 41.7084H51.9107C52.4993 43.3731 53.5345 44.8438 54.903 45.9596C56.2714 47.0754 57.9205 47.7933 59.6696 48.0346C61.4188 48.276 63.2006 48.0315 64.8201 47.328C66.4396 46.6245 67.8344 45.4891 68.8518 44.0459C69.8692 42.6028 70.4701 40.9076 70.5886 39.1459C70.707 37.3841 70.3386 35.6237 69.5236 34.0574C68.7086 32.491 67.4784 31.179 65.9677 30.265C64.457 29.3509 62.7239 28.8701 60.9582 28.875ZM60.9582 41.7084C60.3237 41.7084 59.7034 41.5202 59.1758 41.1677C58.6482 40.8151 58.2369 40.314 57.9941 39.7278C57.7513 39.1416 57.6877 38.4965 57.8115 37.8741C57.9353 37.2517 58.2409 36.6801 58.6896 36.2314C59.1383 35.7827 59.71 35.4771 60.3323 35.3533C60.9547 35.2295 61.5998 35.2931 62.186 35.5359C62.7722 35.7787 63.2733 36.19 63.6259 36.7176C63.9784 37.2452 64.1666 37.8655 64.1666 38.5C64.1666 39.3509 63.8285 40.167 63.2269 40.7687C62.6252 41.3703 61.8091 41.7084 60.9582 41.7084Z" fill="#7FC676"/>
<path d="M9.62488 22.4583H13.4107C14.0851 24.3164 15.3153 25.9218 16.934 27.0563C18.5527 28.1909 20.4815 28.7995 22.4582 28.7995C24.4349 28.7995 26.3637 28.1909 27.9824 27.0563C29.6012 25.9218 30.8313 24.3164 31.5057 22.4583H67.3749C68.2258 22.4583 69.0419 22.1203 69.6435 21.5186C70.2452 20.9169 70.5832 20.1008 70.5832 19.2499C70.5832 18.399 70.2452 17.583 69.6435 16.9813C69.0419 16.3796 68.2258 16.0416 67.3749 16.0416H31.5057C30.8313 14.1835 29.6012 12.5781 27.9824 11.4436C26.3637 10.309 24.4349 9.70041 22.4582 9.70041C20.4815 9.70041 18.5527 10.309 16.934 11.4436C15.3153 12.5781 14.0851 14.1835 13.4107 16.0416H9.62488C8.77398 16.0416 7.95793 16.3796 7.35625 16.9813C6.75457 17.583 6.41655 18.399 6.41655 19.2499C6.41655 20.1008 6.75457 20.9169 7.35625 21.5186C7.95793 22.1203 8.77398 22.4583 9.62488 22.4583ZM22.4582 16.0416C23.0928 16.0416 23.7131 16.2298 24.2407 16.5823C24.7683 16.9348 25.1795 17.4359 25.4223 18.0222C25.6652 18.6084 25.7287 19.2535 25.6049 19.8759C25.4811 20.4982 25.1755 21.0699 24.7269 21.5186C24.2782 21.9673 23.7065 22.2728 23.0841 22.3966C22.4618 22.5204 21.8167 22.4569 21.2304 22.2141C20.6442 21.9712 20.1431 21.56 19.7906 21.0324C19.4381 20.5048 19.2499 19.8845 19.2499 19.2499C19.2499 18.399 19.5879 17.583 20.1896 16.9813C20.7913 16.3796 21.6073 16.0416 22.4582 16.0416Z" fill="#7FC676"/>
<path d="M67.3749 54.5416H44.3391C43.6646 52.6835 42.4345 51.0781 40.8158 49.9436C39.1971 48.809 37.2683 48.2004 35.2916 48.2004C33.3148 48.2004 31.3861 48.809 29.7673 49.9436C28.1486 51.0781 26.9185 52.6835 26.2441 54.5416H9.62488C8.77398 54.5416 7.95793 54.8796 7.35625 55.4813C6.75457 56.083 6.41655 56.899 6.41655 57.75C6.41655 58.6009 6.75457 59.4169 7.35625 60.0186C7.95793 60.6203 8.77398 60.9583 9.62488 60.9583H26.2441C26.9185 62.8164 28.1486 64.4218 29.7673 65.5563C31.3861 66.6909 33.3148 67.2995 35.2916 67.2995C37.2683 67.2995 39.1971 66.6909 40.8158 65.5563C42.4345 64.4218 43.6646 62.8164 44.3391 60.9583H67.3749C68.2258 60.9583 69.0419 60.6203 69.6435 60.0186C70.2452 59.4169 70.5832 58.6009 70.5832 57.75C70.5832 56.899 70.2452 56.083 69.6435 55.4813C69.0419 54.8796 68.2258 54.5416 67.3749 54.5416ZM35.2916 60.9583C34.657 60.9583 34.0367 60.7701 33.5091 60.4176C32.9815 60.0651 32.5703 59.564 32.3274 58.9777C32.0846 58.3915 32.0211 57.7464 32.1449 57.124C32.2687 56.5017 32.5742 55.93 33.0229 55.4813C33.4716 55.0326 34.0433 54.7271 34.6656 54.6033C35.288 54.4795 35.9331 54.543 36.5193 54.7858C37.1056 55.0287 37.6067 55.4399 37.9592 55.9675C38.3117 56.4951 38.4999 57.1154 38.4999 57.75C38.4999 58.6009 38.1619 59.4169 37.5602 60.0186C36.9585 60.6203 36.1425 60.9583 35.2916 60.9583Z" fill="#7FC676"/>
</svg>
