<svg width="59" height="59" viewBox="0 0 59 59" fill="none" xmlns="http://www.w3.org/2000/svg">
<path opacity="0.4" d="M21.2487 32.25C19.4337 33.1575 17.9212 34.505 16.7937 36.1825C16.1612 37.145 16.1612 38.355 16.7937 39.3175C17.9212 40.995 19.4337 42.3425 21.2487 43.25" stroke="#7FC676" stroke-width="4" stroke-linecap="round" stroke-linejoin="round"/>
<path opacity="0.4" d="M38.3299 32.25C40.1449 33.1575 41.6574 34.505 42.7849 36.1825C43.4174 37.145 43.4174 38.355 42.7849 39.3175C41.6574 40.995 40.1449 42.3425 38.3299 43.25" stroke="#7FC676" stroke-width="4" stroke-linecap="round" stroke-linejoin="round"/>
<path d="M21.25 57H37.75C51.5 57 57 51.5 57 37.75V21.25C57 7.5 51.5 2 37.75 2H21.25C7.5 2 2 7.5 2 21.25V37.75C2 51.5 7.5 57 21.25 57Z" stroke="#7FC676" stroke-width="4" stroke-linecap="round" stroke-linejoin="round"/>
<path opacity="0.4" d="M2.63379 18.5275L55.4889 18.5" stroke="#7FC676" stroke-width="4" stroke-linecap="round" stroke-linejoin="round"/>
</svg>
