<svg width="68" height="85" viewBox="0 0 68 85" fill="none" xmlns="http://www.w3.org/2000/svg">
<path d="M33.9138 26.0935L29.7214 33.3812C28.7811 34.9877 29.5647 36.3198 31.4062 36.3198H36.3822C38.2629 36.3198 39.0073 37.652 38.067 39.2584L33.9138 46.5461" stroke="#7FC676" stroke-width="5.87716" stroke-linecap="round" stroke-linejoin="round"/>
<path d="M19.4169 65.8623V61.3173C10.4052 55.8712 3 45.2531 3 33.9691C3 14.5744 20.8274 -0.627849 40.9664 3.76043C49.8214 5.71949 57.5792 11.5967 61.6149 19.7071C69.8037 36.1631 61.1839 53.6378 48.5284 61.2782V65.8232C48.5284 66.9594 48.9594 69.5846 44.767 69.5846H23.1783C18.8683 69.6237 19.4169 67.9389 19.4169 65.8623Z" stroke="#7FC676" stroke-width="5.87716" stroke-linecap="round" stroke-linejoin="round"/>
<path d="M20.2001 81.3784C29.1725 78.8317 38.6544 78.8317 47.6268 81.3784" stroke="#7FC676" stroke-width="5.87716" stroke-linecap="round" stroke-linejoin="round"/>
</svg>
