<svg width="74" height="69" viewBox="0 0 74 69" fill="none" xmlns="http://www.w3.org/2000/svg">
<g opacity="0.4">
<path d="M32.8859 48.6334V55.5672C32.8859 61.4422 27.4209 66.19 20.692 66.19C13.9631 66.19 8.46375 61.4422 8.46375 55.5672V48.6334C8.46375 54.5084 13.9289 58.6755 20.692 58.6755C27.4209 58.6755 32.8859 54.4742 32.8859 48.6334Z" stroke="#7FC676" stroke-width="4.6367" stroke-linecap="round" stroke-linejoin="round"/>
<path d="M32.8867 39.2395C32.8867 40.9473 32.4085 42.5186 31.5887 43.8848C29.5735 47.1981 25.4404 49.2816 20.6585 49.2816C15.8765 49.2816 11.7435 47.1639 9.72821 43.8848C8.90845 42.5186 8.43042 40.9473 8.43042 39.2395C8.43042 36.302 9.79663 33.6719 11.9827 31.7591C14.2029 29.8122 17.2427 28.6512 20.6243 28.6512C24.0058 28.6512 27.0459 29.8463 29.2661 31.7591C31.5204 33.6378 32.8867 36.302 32.8867 39.2395Z" stroke="#7FC676" stroke-width="4.6367" stroke-linecap="round" stroke-linejoin="round"/>
<path d="M32.8859 39.2405V48.6337C32.8859 54.5087 27.4209 58.6758 20.692 58.6758C13.9631 58.6758 8.46375 54.4745 8.46375 48.6337V39.2405C8.46375 33.3655 13.9289 28.6177 20.692 28.6177C24.0735 28.6177 27.1136 29.8132 29.3338 31.726C31.52 33.6388 32.8859 36.303 32.8859 39.2405Z" stroke="#7FC676" stroke-width="4.6367" stroke-linecap="round" stroke-linejoin="round"/>
</g>
<path d="M71.3145 28.5159V35.5523C71.3145 37.4309 69.8116 38.968 67.8988 39.0363H61.204C57.5151 39.0363 54.1336 36.3379 53.8261 32.6489C53.6212 30.497 54.441 28.4818 55.8756 27.0813C57.1394 25.7834 58.8814 25.0319 60.7942 25.0319H67.8988C69.8116 25.1002 71.3145 26.6373 71.3145 28.5159Z" stroke="#7FC676" stroke-width="4.6367" stroke-linecap="round" stroke-linejoin="round"/>
<path d="M3 26.9099V20.0785C3 10.7878 8.60174 4.29796 17.3118 3.20494C18.1998 3.06831 19.1221 3 20.0785 3H50.8197C51.7078 3 52.5617 3.03412 53.3815 3.17075C62.194 4.19546 67.8982 10.7195 67.8982 20.0785V25.0313H60.7936C58.8808 25.0313 57.1388 25.7827 55.875 27.0806C54.4404 28.4811 53.6206 30.4963 53.8255 32.6482C54.1329 36.3372 57.5145 39.0356 61.2034 39.0356H67.8982V43.9883C67.8982 54.2354 61.0668 61.0668 50.8197 61.0668H42.2805" stroke="#7FC676" stroke-width="4.6367" stroke-linecap="round" stroke-linejoin="round"/>
</svg>
