<svg width="60" height="60" viewBox="0 0 60 60" fill="none" xmlns="http://www.w3.org/2000/svg">
<path d="M29.25 50H28.25L27.25 43.5C24.25 43 21.75 41.25 19.75 39L13.75 41.5L11.75 38.25L17 34.25C16 31.25 16 28.25 17 25.25L11.75 21.75L13.75 18.5L19.75 21C21.75 18.75 24.25 17.25 27.25 16.5L28 10H31.75L32.75 16.5C35.75 17 38.5 18.75 40.25 21L46.25 18.5L48.25 21.75L43 25.5C43.5 27 43.75 28.5 43.75 30H45C46.25 30 47.5 30.25 48.75 30.5V30L48.5 27.5L53.75 23.5C54.25 23 54.25 22.5 54 22L49 13.25C48.75 12.5 48.25 12.5 47.5 12.5L41.25 15C40 14 38.5 13.25 37 12.5L36 5.75C36.25 5.5 35.5 5 35 5H25C24.5 5 23.75 5.5 23.75 6L22.75 12.75C21.25 13.25 20 14.25 18.5 15L12.5 12.5C11.75 12.5 11.25 12.5 10.75 13.25L5.74999 22C5.49999 22.5 5.74999 23 6.24999 23.5L11.5 27.5L11.25 30L11.5 32.5L6.24999 36.75C5.74999 37.25 5.74999 37.75 5.99999 38.25L11 47C11.25 47.5 11.75 47.5 12.5 47.5L18.75 45C20 46 21.5 46.75 23 47.5L24 54.25C24 54.75 24.5 55.25 25.25 55.25H31.5C30.25 53.5 29.75 51.75 29.25 50ZM40 30.75V30C40 24.5 35.5 20 30 20C24.5 20 20 24.5 20 30C20 35.5 24.5 40 30 40C31.75 35.75 35.5 32.25 40 30.75ZM25 30C25 27.25 27.25 25 30 25C32.75 25 35 27.25 35 30C35 32.75 32.75 35 30 35C27.25 35 25 32.75 25 30ZM45 36.25V32.5L39.5 38L45 43.5V40C48.5 40 51.25 42.75 51.25 46.25C51.25 47.25 51 48.25 50.5 49L53.25 51.75C56.25 47.25 55 41 50.5 38C49 36.75 47 36.25 45 36.25ZM45 52.5C41.5 52.5 38.75 49.75 38.75 46.25C38.75 45.25 39 44.25 39.5 43.5L36.75 40.75C33.75 45.25 35 51.5 39.5 54.5C41.25 55.5 43 56.25 45 56.25V60L50.5 54.5L45 48.75V52.5Z" fill="#7FC676"/>
</svg>
