<svg width="63" height="69" viewBox="0 0 63 69" fill="none" xmlns="http://www.w3.org/2000/svg">
<path d="M44.0703 68.91H18.4294C6.73074 68.91 0 62.1793 0 50.4806V18.4294C0 6.73074 6.73074 0 18.4294 0H44.0703C55.769 0 62.4998 6.73074 62.4998 18.4294V50.4806C62.4998 62.1793 55.769 68.91 44.0703 68.91ZM18.4294 4.80767C9.26278 4.80767 4.80767 9.26279 4.80767 18.4294V50.4806C4.80767 59.6472 9.26278 64.1023 18.4294 64.1023H44.0703C53.237 64.1023 57.6921 59.6472 57.6921 50.4806V18.4294C57.6921 9.26279 53.237 4.80767 44.0703 4.80767H18.4294Z" fill="#7FC676"/>
<path d="M52.0831 25.6409H45.6729C40.8011 25.6409 36.8588 21.6986 36.8588 16.8269V10.4166C36.8588 9.10253 37.9486 8.01279 39.2627 8.01279C40.5768 8.01279 41.6665 9.10253 41.6665 10.4166V16.8269C41.6665 19.0384 43.4614 20.8333 45.6729 20.8333H52.0831C53.3972 20.8333 54.487 21.923 54.487 23.2371C54.487 24.5512 53.3972 25.6409 52.0831 25.6409Z" fill="#7FC676"/>
<path d="M31.2499 40.0639H18.4294C17.1153 40.0639 16.0256 38.9742 16.0256 37.6601C16.0256 36.346 17.1153 35.2563 18.4294 35.2563H31.2499C32.564 35.2563 33.6537 36.346 33.6537 37.6601C33.6537 38.9742 32.564 40.0639 31.2499 40.0639Z" fill="#7FC676"/>
<path d="M44.0703 52.8844H18.4294C17.1153 52.8844 16.0256 51.7946 16.0256 50.4805C16.0256 49.1664 17.1153 48.0767 18.4294 48.0767H44.0703C45.3844 48.0767 46.4742 49.1664 46.4742 50.4805C46.4742 51.7946 45.3844 52.8844 44.0703 52.8844Z" fill="#7FC676"/>
</svg>
