<svg width="60" height="60" viewBox="0 0 60 60" fill="none" xmlns="http://www.w3.org/2000/svg">
<path d="M32.5 47.5H35C35.663 47.5 36.2989 47.7634 36.7678 48.2322C37.2366 48.7011 37.5 49.337 37.5 50H55V55H37.5C37.5 55.663 37.2366 56.2989 36.7678 56.7678C36.2989 57.2366 35.663 57.5 35 57.5H25C24.337 57.5 23.7011 57.2366 23.2322 56.7678C22.7634 56.2989 22.5 55.663 22.5 55H5V50H22.5C22.5 49.337 22.7634 48.7011 23.2322 48.2322C23.7011 47.7634 24.337 47.5 25 47.5H27.5V42.5H10C9.33696 42.5 8.70107 42.2366 8.23223 41.7678C7.76339 41.2989 7.5 40.663 7.5 40V30C7.5 29.337 7.76339 28.7011 8.23223 28.2322C8.70107 27.7634 9.33696 27.5 10 27.5H50C50.663 27.5 51.2989 27.7634 51.7678 28.2322C52.2366 28.7011 52.5 29.337 52.5 30V40C52.5 40.663 52.2366 41.2989 51.7678 41.7678C51.2989 42.2366 50.663 42.5 50 42.5H32.5V47.5ZM10 7.5H50C50.663 7.5 51.2989 7.76339 51.7678 8.23223C52.2366 8.70107 52.5 9.33696 52.5 10V20C52.5 20.663 52.2366 21.2989 51.7678 21.7678C51.2989 22.2366 50.663 22.5 50 22.5H10C9.33696 22.5 8.70107 22.2366 8.23223 21.7678C7.76339 21.2989 7.5 20.663 7.5 20V10C7.5 9.33696 7.76339 8.70107 8.23223 8.23223C8.70107 7.76339 9.33696 7.5 10 7.5ZM22.5 17.5H25V12.5H22.5V17.5ZM22.5 37.5H25V32.5H22.5V37.5ZM12.5 12.5V17.5H17.5V12.5H12.5ZM12.5 32.5V37.5H17.5V32.5H12.5Z" fill="#7FC676"/>
</svg>
