<svg width="60" height="58" viewBox="0 0 60 58" fill="none" xmlns="http://www.w3.org/2000/svg">
<path d="M24.4183 44.4272H13.8417C3.23716 44.4272 0 41.19 0 30.5855V13.8417C0 3.23716 3.23716 0 13.8417 0H43.2273C53.8318 0 57.069 3.23716 57.069 13.8417C57.069 14.9858 56.1201 15.9347 54.976 15.9347C53.8318 15.9347 52.883 14.9858 52.883 13.8417C52.883 5.63713 51.4318 4.18599 43.2273 4.18599H13.8417C5.63713 4.18599 4.18599 5.63713 4.18599 13.8417V30.5855C4.18599 38.7901 5.63713 40.2412 13.8417 40.2412H24.4183C25.5624 40.2412 26.5113 41.19 26.5113 42.3342C26.5113 43.4784 25.5624 44.4272 24.4183 44.4272Z" fill="#7FC676"/>
<path d="M24.4183 57.0407C23.2741 57.0407 22.3253 56.0919 22.3253 54.9477V42.306C22.3253 41.1618 23.2741 40.213 24.4183 40.213C25.5624 40.213 26.5112 41.1618 26.5112 42.306V54.9477C26.5112 56.1198 25.5624 57.0407 24.4183 57.0407Z" fill="#7FC676"/>
<path d="M24.4183 33.2645H2.09299C0.948824 33.2645 0 32.3157 0 31.1715C0 30.0274 0.948824 29.0786 2.09299 29.0786H24.4183C25.5624 29.0786 26.5113 30.0274 26.5113 31.1715C26.5113 32.3157 25.5624 33.2645 24.4183 33.2645Z" fill="#7FC676"/>
<path d="M24.4189 57.0409H15.3214C14.1772 57.0409 13.2284 56.0921 13.2284 54.9479C13.2284 53.8037 14.1772 52.8549 15.3214 52.8549H24.4189C25.563 52.8549 26.5118 53.8037 26.5118 54.9479C26.5118 56.0921 25.563 57.0409 24.4189 57.0409Z" fill="#7FC676"/>
<path d="M49.6467 57.0412H39.7398C32.0097 57.0412 29.3865 54.418 29.3865 46.6879V30.7532C29.3865 23.0231 32.0097 20.3998 39.7398 20.3998H49.6467C57.3768 20.3998 60 23.0231 60 30.7532V46.6879C60 54.4459 57.3768 57.0412 49.6467 57.0412ZM39.7398 24.5859C34.2702 24.5859 33.5725 25.2835 33.5725 30.7532V46.6879C33.5725 52.1576 34.2702 52.8552 39.7398 52.8552H49.6467C55.1164 52.8552 55.814 52.1576 55.814 46.6879V30.7532C55.814 25.2835 55.1164 24.5859 49.6467 24.5859H39.7398Z" fill="#7FC676"/>
<path d="M44.7895 47.9713C44.0639 47.9713 43.3384 47.6923 42.8081 47.162C42.557 46.9109 42.3616 46.6039 42.2221 46.269C42.0826 45.9062 41.9988 45.5434 41.9988 45.1807C41.9988 44.4551 42.3058 43.7295 42.8081 43.2272C43.45 42.5854 44.4267 42.2784 45.3476 42.4458C45.5151 42.5016 45.6825 42.5574 45.8499 42.6133C46.0174 42.697 46.1848 42.7807 46.3244 42.8644C46.4918 42.976 46.6313 43.0877 46.7709 43.2272C47.2732 43.7295 47.5802 44.4551 47.5802 45.1807C47.5802 45.5434 47.4964 45.9062 47.3569 46.269C47.2174 46.6039 47.022 46.9109 46.7709 47.162C46.6313 47.3016 46.4918 47.4132 46.3244 47.4969C46.1848 47.6085 46.0174 47.6923 45.8499 47.776C45.6825 47.8318 45.5151 47.8876 45.3476 47.9155C45.1523 47.9713 44.9848 47.9713 44.7895 47.9713Z" fill="#7FC676"/>
</svg>
